<?xml version="1.0" standalone="no"?>
<!DOCTYPE svg PUBLIC "-//W3C//DTD SVG 20010904//EN"
 "http://www.w3.org/TR/2001/REC-SVG-20010904/DTD/svg10.dtd">
<svg version="1.0" xmlns="http://www.w3.org/2000/svg"
 width="260.000000pt" height="260.000000pt" viewBox="0 0 260.000000 260.000000"
 preserveAspectRatio="xMidYMid meet">
<metadata>
Created by potrace 1.11, written by Peter Selinger 2001-2013
</metadata>
<g transform="translate(0.000000,260.000000) scale(0.100000,-0.100000)"
fill="#000000" stroke="none">
<path d="M1655 2583 c3 -10 10 -38 15 -63 15 -75 17 -82 48 -167 16 -45 47
-109 69 -141 22 -33 53 -89 68 -126 54 -123 111 -159 169 -108 15 12 32 22 39
22 24 0 57 31 57 54 0 13 -13 52 -30 88 -16 35 -34 85 -39 110 -4 26 -16 59
-25 72 -9 14 -16 32 -16 41 0 9 -9 26 -21 38 -11 12 -27 35 -36 50 -8 16 -30
42 -48 58 -19 17 -37 43 -40 59 l-7 30 -105 0 c-96 0 -105 -2 -98 -17z"/>
<path d="M2184 2573 c-8 -12 -9 -25 -3 -36 7 -11 5 -18 -5 -24 -13 -7 -13 -16
1 -73 8 -36 22 -80 29 -98 8 -18 21 -65 30 -105 14 -67 66 -206 87 -234 30
-41 113 15 123 82 11 76 12 124 2 172 -5 26 -10 54 -11 61 0 6 -4 12 -9 12 -4
0 -8 9 -8 20 0 27 -82 201 -103 218 -8 7 -40 16 -69 19 -45 4 -55 2 -64 -14z"/>
<path d="M1412 2223 c-40 -34 -50 -93 -24 -133 8 -14 16 -35 17 -47 0 -12 8
-30 17 -40 9 -10 20 -31 24 -48 4 -16 17 -48 29 -70 12 -22 23 -44 24 -50 1
-5 12 -21 24 -35 12 -14 34 -41 49 -60 51 -67 107 -124 125 -128 25 -5 54 -4
60 2 12 12 11 165 -2 218 -15 64 -10 57 -147 226 -54 66 -98 123 -98 125 0 6
-57 67 -62 67 -2 0 -18 -12 -36 -27z"/>
<path d="M943 2192 c-18 -11 -23 -70 -7 -83 8 -6 14 -21 14 -34 0 -12 12 -44
26 -71 15 -27 32 -66 40 -87 7 -20 26 -56 42 -80 15 -23 40 -68 55 -99 14 -31
32 -60 40 -65 7 -4 24 -24 37 -43 13 -19 37 -48 52 -65 16 -16 38 -44 50 -62
28 -40 61 -55 103 -47 32 6 33 8 37 55 2 37 -1 52 -14 63 -9 8 -22 33 -28 56
-6 22 -22 57 -35 77 -14 20 -25 42 -25 49 0 7 -22 34 -49 59 -28 26 -57 61
-65 79 -8 17 -30 47 -48 67 -18 19 -45 51 -59 70 -15 18 -47 56 -73 83 -25 28
-46 53 -46 58 0 12 -35 27 -47 20z"/>
<path d="M2558 1915 c-32 -21 -210 -95 -231 -95 -11 0 -95 -58 -127 -87 -14
-13 -30 -23 -36 -23 -6 0 -19 -9 -30 -21 -10 -12 -35 -29 -55 -40 -20 -10 -47
-31 -61 -47 -13 -16 -28 -27 -34 -25 -6 2 -23 -8 -38 -22 -15 -14 -33 -25 -41
-25 -8 0 -18 -6 -22 -13 -14 -23 -70 -57 -95 -57 -17 0 -32 -14 -58 -53 -19
-28 -43 -58 -53 -65 -10 -8 -23 -20 -30 -29 -7 -8 -23 -24 -36 -36 -45 -41
-96 -96 -136 -147 -22 -29 -54 -66 -72 -82 -18 -17 -42 -48 -53 -70 -11 -21
-25 -45 -30 -51 -42 -52 -60 -80 -84 -135 -15 -34 -29 -71 -31 -82 -2 -11 -7
-25 -11 -31 -4 -7 -7 -24 -6 -39 0 -16 -10 -38 -26 -56 -15 -16 -26 -32 -24
-36 1 -5 -3 -8 -9 -8 -7 0 -9 -12 -7 -31 4 -22 -1 -34 -15 -44 -20 -14 -69
-144 -60 -159 3 -4 0 -12 -7 -16 -7 -4 -14 -21 -17 -36 -7 -52 -10 -65 -43
-216 l-8 -38 814 0 814 0 0 603 c0 469 -3 606 -12 616 -10 10 -10 12 -1 7 9
-5 12 75 13 354 0 198 -1 360 -2 360 -2 0 -20 -11 -40 -25z"/>
<path d="M665 1910 c-3 -5 -15 -10 -26 -10 -11 0 -22 -7 -26 -16 -3 -8 -17
-20 -32 -25 -18 -7 -22 -12 -12 -18 7 -5 11 -15 9 -22 -2 -8 3 -21 10 -29 42
-50 52 -65 52 -82 0 -10 29 -47 65 -82 36 -35 65 -68 65 -74 0 -6 22 -28 49
-49 27 -21 57 -51 67 -68 9 -16 24 -37 33 -46 9 -9 44 -46 79 -83 35 -36 66
-66 69 -66 3 0 25 -19 48 -42 52 -52 130 -108 149 -108 32 0 40 108 10 141 -8
8 -14 24 -14 35 0 10 -13 49 -29 85 -22 52 -47 85 -115 155 -48 48 -93 102
-100 119 -7 17 -26 39 -42 49 -33 22 -144 136 -144 149 0 4 -4 6 -9 3 -4 -3
-17 4 -27 15 -22 24 -101 79 -114 79 -5 0 -12 -4 -15 -10z"/>
<path d="M131 1631 c-21 -14 -14 -128 8 -123 6 1 11 -2 11 -8 0 -5 -4 -10 -9
-10 -14 0 -19 -35 -7 -52 11 -15 82 -100 101 -122 6 -7 17 -23 25 -38 8 -14
38 -44 65 -66 28 -22 78 -63 113 -91 34 -28 66 -51 71 -51 4 0 26 -12 47 -27
52 -37 99 -63 114 -63 6 0 39 -19 73 -42 34 -23 80 -48 102 -56 37 -13 41 -12
57 8 10 12 18 33 18 46 0 24 -55 114 -70 114 -4 0 -27 26 -51 58 -23 31 -47
59 -52 61 -4 1 -19 13 -32 25 -13 11 -49 41 -79 65 -31 24 -53 47 -51 51 5 9
-145 153 -185 178 -85 53 -158 103 -176 120 -24 23 -73 36 -93 23z"/>
<path d="M425 750 c-68 -38 -7 -139 154 -255 56 -39 239 -110 312 -120 40 -5
46 -4 65 22 16 21 19 34 13 51 -5 12 -13 22 -18 22 -5 0 -24 26 -41 58 -26 48
-43 65 -108 107 -105 67 -194 113 -210 108 -7 -3 -23 2 -35 10 -30 19 -95 18
-132 -3z"/>
<path d="M0 294 c0 -48 25 -104 47 -104 6 0 16 -6 20 -14 11 -18 104 -68 233
-124 l105 -46 183 -4 c166 -4 182 -3 182 13 0 9 -16 31 -35 48 -45 40 -215
133 -268 148 -23 6 -68 24 -102 40 -34 16 -68 29 -75 29 -7 0 -55 14 -107 30
-51 17 -113 30 -138 30 l-45 0 0 -46z"/>
</g>
</svg>
